# xmcd
#
# Track frame offsets: 
#        150
#        16572
#        35541
#        53722
#        82958
#        101778
#        118540
#        134878
#        149780
#        166253
#        183961
#        198738
#        214302
#        230510
#        244942
#        259345
#        276308
#        293337
#        310867
#        327717
#
# Disc length: 4526 seconds
#
# Revision: 6
# Processed by: cddbd v1.5.2PL0 Copyright (c) Steve Scherf et al.
# Submitted via: ExactAudioCopyFreeDBPlugin 1.0
#
DISCID=3511ac14
DTITLE=Diverse International - Bild Music Hits 2000 - CD 1
DYEAR=1900
DGENRE=Blues
TTITLE0=Lou Bega - Mambo No. 5
TTITLE1=Westernhagen - Durch deine Liebe
TTITLE2=Texas - Summer Son
TTITLE3=Pet Shop Boys - New York City Boy
TTITLE4=Bryan Adams - Bryan Adams: Cloud Number Nine
TTITLE5=A*Teens - Mamma Mia
TTITLE6=Enrique Iglesias - Bailamos
TTITLE7=Britney Spears - (You Drive Me) Crazy
TTITLE8=Eiffel 65 - Blue (Da Ba Dee)
TTITLE9=Roxette - Stars
TTITLE10=Sixpence None The Richer - Kiss Me
TTITLE11=Jan Josef Liefers - Jack4s Baby
TTITLE12=Sixpence None the Richer - Burning Down The House
TTITLE13=Tom Jones feat. The Cardigans - Geri Halliwell: Mi Chico Lati
TTITLE13=no
TTITLE14=Oli P. - So bist Du (wenn Du gehst)
TTITLE15=Simon Collins - Simon Collins: Pride
TTITLE16=Ann Lee - Ann Lee: 2 Times
TTITLE17=Bob Marley vs. Funkstar De Luxe Remix - Sun Is Shining
TTITLE18=Vengaboys - Megamix
TTITLE19=Ali  - Döner oder was?!?
EXTD=ID3G: 0
EXTT0=
EXTT1=
EXTT2=
EXTT3=
EXTT4=
EXTT5=
EXTT6=
EXTT7=
EXTT8=
EXTT9=
EXTT10=
EXTT11=
EXTT12=
EXTT13=
EXTT14=
EXTT15=
EXTT16=
EXTT17=
EXTT18=
EXTT19=
PLAYORDER=
